# Blender 4.0.1
# www.blender.org
mtllib bullet.mtl
o Cube
v 0.500545 -3.204304 -0.500545
v 0.000000 -2.770994 -0.707877
v 0.000000 -2.231266 -0.913427
v 0.000000 0.000000 -1.003857
v 0.645890 -2.231266 -0.645890
v 0.709834 0.000000 -0.709834
v 0.913427 -2.231266 0.000000
v 1.003857 0.000000 0.000000
v 0.645890 -2.231266 0.645890
v 0.709834 0.000000 0.709834
v 0.000000 -2.231266 0.913427
v 0.000000 0.000000 1.003857
v -0.645890 -2.231266 0.645890
v -0.709834 0.000000 0.709834
v -0.913427 -2.231266 0.000000
v -1.003857 0.000000 0.000000
v -0.645890 -2.231266 -0.645890
v -0.709834 0.000000 -0.709834
v 0.707877 -2.770994 0.000000
v 0.500545 -3.204304 0.500545
v 0.000000 -2.770994 0.707877
v -0.500545 -3.204304 0.500545
v -0.707877 -2.770994 0.000000
v -0.500545 -3.204304 -0.500545
v 0.000000 -3.856789 0.000000
v 0.500545 3.204304 -0.500545
v 0.000000 2.770994 -0.707877
v 0.000000 2.231266 -0.913427
v 0.645890 2.231266 -0.645890
v 0.913427 2.231266 0.000000
v 0.645890 2.231266 0.645890
v 0.000000 2.231266 0.913427
v -0.645890 2.231266 0.645890
v -0.913427 2.231266 0.000000
v -0.645890 2.231266 -0.645890
v 0.707877 2.770994 0.000000
v 0.500545 3.204304 0.500545
v 0.000000 2.770994 0.707877
v -0.500545 3.204304 0.500545
v -0.707877 2.770994 0.000000
v -0.500545 3.204304 -0.500545
v 0.000000 3.856789 0.000000
vn -0.2916 -0.2426 0.9253
vn 0.3824 -0.0374 -0.9232
vn 0.2916 -0.2426 0.9253
vn 0.9232 -0.0374 -0.3824
vn -0.9253 -0.2426 -0.2916
vn 0.9232 -0.0374 0.3824
vn 0.9253 -0.2426 0.2916
vn 0.3824 -0.0374 0.9232
vn -0.2916 -0.2426 -0.9253
vn -0.3824 -0.0374 0.9232
vn -0.9253 -0.2426 0.2916
vn -0.9232 -0.0374 0.3824
vn -0.0000 -0.5461 -0.8377
vn -0.9232 -0.0374 -0.3824
vn 0.2916 -0.2426 -0.9253
vn -0.3824 -0.0374 -0.9232
vn 0.9253 -0.2426 -0.2916
vn 0.8377 -0.5461 -0.0000
vn -0.0000 -0.5461 0.8377
vn -0.8377 -0.5461 -0.0000
vn -0.2916 0.2426 0.9253
vn 0.3824 0.0374 -0.9232
vn 0.2916 0.2426 0.9253
vn 0.9232 0.0374 -0.3824
vn -0.9253 0.2426 -0.2916
vn 0.9232 0.0374 0.3824
vn 0.9253 0.2426 0.2916
vn 0.3824 0.0374 0.9232
vn -0.2916 0.2426 -0.9253
vn -0.3824 0.0374 0.9232
vn -0.9253 0.2426 0.2916
vn -0.9232 0.0374 0.3824
vn -0.0000 0.5461 -0.8377
vn -0.9232 0.0374 -0.3824
vn 0.2916 0.2426 -0.9253
vn -0.3824 0.0374 -0.9232
vn 0.9253 0.2426 -0.2916
vn 0.8377 0.5461 -0.0000
vn -0.0000 0.5461 0.8377
vn -0.8377 0.5461 -0.0000
vt 0.278984 0.240579
vt 0.194402 0.232225
vt 0.218120 0.108872
vt 0.280377 0.170136
vt 0.620600 0.237222
vt 0.632900 0.503246
vt 0.541675 0.502071
vt 0.535266 0.234114
vt 0.364769 0.235369
vt 0.344741 0.110811
vt 0.450603 0.501564
vt 0.450440 0.241562
vt 0.109344 0.234387
vt 0.024222 0.222606
vt 0.053528 0.100027
vt 0.113237 0.163976
vt 0.363353 0.501197
vt 0.386108 0.111031
vt 0.449850 0.171058
vt 0.274745 0.500245
vt 0.706380 0.226372
vt 0.617507 0.166432
vt 0.678224 0.102798
vt 0.185211 0.499375
vt 0.179857 0.107522
vt 0.092725 0.499019
vt 0.551179 0.108994
vt 0.609612 0.001532
vt 0.000000 0.498568
vt 0.727633 0.504290
vt 0.512800 0.110411
vt 0.448945 0.006647
vt 0.283023 0.005826
vt 0.122849 0.000000
vt 0.277882 0.760034
vt 0.278559 0.830460
vt 0.215979 0.891666
vt 0.192271 0.767732
vt 0.618008 0.766832
vt 0.532384 0.768586
vt 0.362613 0.765848
vt 0.342601 0.889835
vt 0.447990 0.760424
vt 0.106955 0.764733
vt 0.110173 0.835406
vt 0.049645 0.898970
vt 0.021455 0.775715
vt 0.446784 0.830628
vt 0.382787 0.889850
vt 0.701705 0.779089
vt 0.672729 0.900467
vt 0.613558 0.836906
vt 0.176451 0.892695
vt 0.603869 1.000000
vt 0.547089 0.893115
vt 0.508939 0.891565
vt 0.444454 0.994337
vt 0.280794 0.994766
vt 0.118203 1.000000
s 0
usemtl Material
f 11/1/1 13/2/1 22/3/1 21/4/1
f 3/5/2 4/6/2 6/7/2 5/8/2
f 9/9/3 11/1/3 21/4/3 20/10/3
f 5/8/4 6/7/4 8/11/4 7/12/4
f 15/13/5 17/14/5 24/15/5 23/16/5
f 7/12/6 8/11/6 10/17/6 9/9/6
f 7/12/7 9/9/7 20/18/7 19/19/7
f 9/9/8 10/17/8 12/20/8 11/1/8
f 17/21/9 3/5/9 2/22/9 24/23/9
f 11/1/10 12/20/10 14/24/10 13/2/10
f 13/2/11 15/13/11 23/16/11 22/25/11
f 13/2/12 14/24/12 16/26/12 15/13/12
f 24/23/13 2/22/13 1/27/13 25/28/13
f 15/13/14 16/26/14 18/29/14 17/14/14
f 3/5/15 5/8/15 1/27/15 2/22/15
f 17/21/16 18/30/16 4/6/16 3/5/16
f 5/8/17 7/12/17 19/19/17 1/31/17
f 20/18/18 25/32/18 1/31/18 19/19/18
f 22/3/19 25/33/19 20/10/19 21/4/19
f 24/15/20 25/34/20 22/25/20 23/16/20
f 32/35/21 38/36/21 39/37/21 33/38/21
f 28/39/22 29/40/22 6/7/22 4/6/22
f 31/41/23 37/42/23 38/36/23 32/35/23
f 29/40/24 30/43/24 8/11/24 6/7/24
f 34/44/25 40/45/25 41/46/25 35/47/25
f 30/43/26 31/41/26 10/17/26 8/11/26
f 30/43/27 36/48/27 37/49/27 31/41/27
f 31/41/28 32/35/28 12/20/28 10/17/28
f 35/50/29 41/51/29 27/52/29 28/39/29
f 32/35/30 33/38/30 14/24/30 12/20/30
f 33/38/31 39/53/31 40/45/31 34/44/31
f 33/38/32 34/44/32 16/26/32 14/24/32
f 41/51/33 42/54/33 26/55/33 27/52/33
f 34/44/34 35/47/34 18/29/34 16/26/34
f 28/39/35 27/52/35 26/55/35 29/40/35
f 35/50/36 28/39/36 4/6/36 18/30/36
f 29/40/37 26/56/37 36/48/37 30/43/37
f 37/49/38 36/48/38 26/56/38 42/57/38
f 39/37/39 38/36/39 37/42/39 42/58/39
f 41/46/40 40/45/40 39/53/40 42/59/40
